<svg xmlns="http://www.w3.org/2000/svg" xmlns:xlink="http://www.w3.org/1999/xlink"><symbol id="basket" viewBox="0 0 24 24">
<path d="M17.8571 4.8V2.4H8.33333V4.8H17.8571ZM7.14286 19.2C6.51139 19.2 5.90578 19.4529 5.45927 19.9029C5.01275 20.353 4.7619 20.9635 4.7619 21.6C4.7619 22.2365 5.01275 22.847 5.45927 23.2971C5.90578 23.7471 6.51139 24 7.14286 24C7.77432 24 8.37993 23.7471 8.82644 23.2971C9.27296 22.847 9.52381 22.2365 9.52381 21.6C9.52381 20.9635 9.27296 20.353 8.82644 19.9029C8.37993 19.4529 7.77432 19.2 7.14286 19.2ZM19.0476 19.2C18.4162 19.2 17.8105 19.4529 17.364 19.9029C16.9175 20.353 16.6667 20.9635 16.6667 21.6C16.6667 22.2365 16.9175 22.847 17.364 23.2971C17.8105 23.7471 18.4162 24 19.0476 24C19.6791 24 20.2847 23.7471 20.7312 23.2971C21.1777 22.847 21.4286 22.2365 21.4286 21.6C21.4286 20.9635 21.1777 20.353 20.7312 19.9029C20.2847 19.4529 19.6791 19.2 19.0476 19.2ZM7.34524 15.3L7.38095 15.156L8.45238 13.2H17.3214C18.2143 13.2 19 12.708 19.4048 11.964L24 3.552L21.9286 2.4H21.9167L20.6071 4.8L17.3214 10.8H8.96428L8.80952 10.476L6.14286 4.8L5.0119 2.4L3.89286 0H0V2.4H2.38095L6.66667 11.508L5.05952 14.448C4.86905 14.784 4.7619 15.18 4.7619 15.6C4.7619 16.2365 5.01275 16.847 5.45927 17.2971C5.90578 17.7471 6.51139 18 7.14286 18H21.4286V15.6H7.64286C7.4881 15.6 7.34524 15.468 7.34524 15.3Z" fill="#222222"/>
</symbol><symbol id="big-arrow" viewBox="0 0 39 22">
<path d="M0 10.0833H35.1739L26.9043 1.45176L28.4783 0L39 11L28.4783 22L27.0435 20.5652L35.1739 11.9167H0V10.0833Z" fill="#1C69D4"/>
</symbol><symbol id="down-arrow" viewBox="0 0 7 5">
<path d="M0 1.5V0.5H1V1.5H0Z" fill="#222222"/>
<path d="M2 2.5H1V1.5H2V2.5Z" fill="#222222"/>
<path d="M3 3.5H2V2.5H3V3.5Z" fill="#222222"/>
<path d="M4 3.5V4.5H3V3.5H4Z" fill="#222222"/>
<path d="M5 2.5V3.5H4V2.5H5Z" fill="#222222"/>
<path d="M6 1.5H5V2.5H6V1.5Z" fill="#222222"/>
<path d="M6 1.5H7V0.5H6V1.5Z" fill="#222222"/>
</symbol><symbol id="head-burger" viewBox="0 0 22 15">
<rect width="22" height="3" rx="0.7" fill="#222222"/>
<rect y="12" width="13" height="3" rx="0.7" fill="#222222"/>
<rect y="6" width="22" height="3" rx="0.7" fill="#222222"/>
</symbol><symbol id="Instagram" viewBox="0 0 30 30">
<rect width="30" height="30" rx="15" fill="white"/>
<path d="M12.7506 15C12.7506 13.6193 13.9256 12.4998 15.3753 12.4998C16.8251 12.4998 18.0006 13.6193 18.0006 15C18.0006 16.3807 16.8251 17.5002 15.3753 17.5002C13.9256 17.5002 12.7506 16.3807 12.7506 15ZM11.3314 15C11.3314 17.127 13.1419 18.8512 15.3753 18.8512C17.6088 18.8512 19.4192 17.127 19.4192 15C19.4192 12.873 17.6088 11.1488 15.3753 11.1488C13.1419 11.1488 11.3314 12.873 11.3314 15ZM18.6342 10.9961C18.6342 11.1741 18.6895 11.3482 18.7933 11.4962C18.8971 11.6443 19.0446 11.7597 19.2173 11.8279C19.3899 11.896 19.5799 11.9139 19.7633 11.8793C19.9466 11.8446 20.115 11.759 20.2473 11.6332C20.3795 11.5073 20.4696 11.347 20.5061 11.1724C20.5426 10.9979 20.524 10.8169 20.4525 10.6524C20.3811 10.4879 20.26 10.3473 20.1046 10.2484C19.9493 10.1494 19.7666 10.0966 19.5797 10.0965H19.5793C19.3287 10.0966 19.0885 10.1914 18.9113 10.3601C18.7341 10.5288 18.6345 10.7575 18.6342 10.9961ZM12.1937 21.1048C11.4259 21.0715 11.0085 20.9497 10.7312 20.8468C10.3635 20.7105 10.1012 20.5481 9.82536 20.2858C9.54954 20.0235 9.3788 19.7739 9.23629 19.4237C9.12817 19.1597 9.00028 18.7622 8.96538 18.031C8.9272 17.2404 8.91957 17.0029 8.91957 15.0001C8.91957 12.9972 8.92783 12.7604 8.96538 11.9692C9.00034 11.2379 9.12918 10.8412 9.23629 10.5764C9.37943 10.2262 9.54991 9.97638 9.82536 9.7137C10.1008 9.45102 10.3629 9.28842 10.7312 9.1527C11.0084 9.04974 11.4259 8.92794 12.1937 8.8947C13.0238 8.85834 13.2732 8.85108 15.3753 8.85108C17.4775 8.85108 17.7271 8.85894 18.5579 8.8947C19.3257 8.928 19.7423 9.0507 20.0204 9.1527C20.388 9.28842 20.6504 9.45138 20.9262 9.7137C21.202 9.97602 21.3721 10.2262 21.5153 10.5764C21.6234 10.8404 21.7513 11.2379 21.7862 11.9692C21.8244 12.7604 21.832 12.9972 21.832 15.0001C21.832 17.0029 21.8244 17.2397 21.7862 18.031C21.7512 18.7622 21.6227 19.1596 21.5153 19.4237C21.3721 19.7739 21.2017 20.0237 20.9262 20.2858C20.6508 20.5479 20.388 20.7105 20.0204 20.8468C19.7432 20.9498 19.3257 21.0716 18.5579 21.1048C17.7278 21.1412 17.4784 21.1484 15.3753 21.1484C13.2722 21.1484 13.0236 21.1412 12.1937 21.1048ZM12.1285 7.54542C11.2901 7.58178 10.7172 7.70838 10.2169 7.89378C9.69879 8.08524 9.26016 8.3421 8.82186 8.75886C8.38355 9.17562 8.11453 9.594 7.91349 10.0874C7.71881 10.5642 7.58587 11.1095 7.54769 11.9079C7.50888 12.7076 7.5 12.9632 7.5 15C7.5 17.0368 7.50888 17.2924 7.54769 18.0921C7.58587 18.8906 7.71881 19.4358 7.91349 19.9126C8.11453 20.4057 8.38361 20.8246 8.82186 21.2411C9.2601 21.6577 9.69879 21.9142 10.2169 22.1062C10.7182 22.2916 11.2901 22.4182 12.1285 22.4546C12.9686 22.4909 13.2366 22.5 15.3753 22.5C17.514 22.5 17.7825 22.4915 18.6222 22.4546C19.4606 22.4182 20.0331 22.2916 20.5337 22.1062C21.0515 21.9142 21.4905 21.6579 21.9288 21.2411C22.3671 20.8244 22.6355 20.4057 22.8371 19.9126C23.0318 19.4358 23.1654 18.8905 23.2029 18.0921C23.2411 17.2918 23.25 17.0368 23.25 15C23.25 12.9632 23.2411 12.7076 23.2029 11.9079C23.1648 11.1094 23.0318 10.5639 22.8371 10.0874C22.6355 9.5943 22.3664 9.17628 21.9288 8.75886C21.4912 8.34144 21.0515 8.08524 20.5343 7.89378C20.0331 7.70838 19.4605 7.58118 18.6228 7.54542C17.7831 7.50906 17.5146 7.5 15.3759 7.5C13.2373 7.5 12.9686 7.50846 12.1285 7.54542Z" fill="#222222"/>
</symbol><symbol id="main-burger" viewBox="0 0 22 15">
<rect width="22" height="3" rx="0.7" fill="white"/>
<rect y="12" width="22" height="3" rx="0.7" fill="white"/>
<rect y="6" width="22" height="3" rx="0.7" fill="white"/>
</symbol><symbol id="man" viewBox="0 0 19 20">
<path d="M9.0127 0.93573C6.2557 0.93573 4.0127 3.17873 4.0127 5.93573C4.0127 8.69273 6.2557 10.9357 9.0127 10.9357C11.7697 10.9357 14.0127 8.69273 14.0127 5.93573C14.0127 3.17873 11.7697 0.93573 9.0127 0.93573ZM9.0127 8.93573C7.3587 8.93573 6.0127 7.58973 6.0127 5.93573C6.0127 4.28173 7.3587 2.93573 9.0127 2.93573C10.6667 2.93573 12.0127 4.28173 12.0127 5.93573C12.0127 7.58973 10.6667 8.93573 9.0127 8.93573ZM18.0127 19.9357V18.9357C18.0127 15.0767 14.8717 11.9357 11.0127 11.9357H7.0127C3.1527 11.9357 0.0126953 15.0767 0.0126953 18.9357V19.9357H2.0127V18.9357C2.0127 16.1787 4.2557 13.9357 7.0127 13.9357H11.0127C13.7697 13.9357 16.0127 16.1787 16.0127 18.9357V19.9357H18.0127Z" fill="#222222"/>
</symbol><symbol id="right-arrow" viewBox="0 0 26 19">
<path d="M0.25 9H22.6196L15.8535 1.9378L17.1413 0.75L25.75 9.75L17.1413 18.75L15.9674 17.5761L22.6196 10.5H0.25V9Z" fill="white"/>
</symbol><symbol id="search" viewBox="0 0 18 18">
<path d="M7.69765 15.3945C9.47389 15.3945 11.1068 14.7835 12.4096 13.7704L16.6394 18L18 16.6395L13.7701 12.4099C14.7843 11.1062 15.3953 9.47338 15.3953 7.69724C15.3953 3.45318 11.9419 0 7.69765 0C3.45336 0 0 3.45318 0 7.69724C0 11.9413 3.45336 15.3945 7.69765 15.3945ZM7.69765 1.92431C10.8816 1.92431 13.4709 4.51347 13.4709 7.69724C13.4709 10.881 10.8816 13.4702 7.69765 13.4702C4.51371 13.4702 1.92441 10.881 1.92441 7.69724C1.92441 4.51347 4.51371 1.92431 7.69765 1.92431Z" fill="#222222"/>
</symbol><symbol id="vk" viewBox="0 0 30 30">
<rect width="30" height="30" rx="15" fill="white"/>
<path fill-rule="evenodd" clip-rule="evenodd" d="M22.8714 11.1602C22.9862 10.7797 22.8714 10.5 22.3255 10.5H20.5204C20.0614 10.5 19.8499 10.7416 19.7352 11.008C19.7352 11.008 18.8172 13.2342 17.5167 14.6803C17.096 15.0989 16.9048 15.232 16.6753 15.232C16.5605 15.232 16.3944 15.0989 16.3944 14.7184V11.1602C16.3944 10.7035 16.2612 10.5 15.8787 10.5H13.0421C12.7553 10.5 12.5828 10.7119 12.5828 10.9128C12.5828 11.3458 13.2329 11.4456 13.3 12.6633V15.3083C13.3 15.8882 13.1948 15.9934 12.9652 15.9934C12.3533 15.9934 10.8649 13.757 9.98192 11.1983C9.80889 10.7009 9.63534 10.5 9.174 10.5H7.36889C6.85315 10.5 6.75 10.7416 6.75 11.008C6.75 11.4837 7.36206 13.8432 9.59949 16.9637C11.0913 19.0946 13.1927 20.25 15.1051 20.25C16.2526 20.25 16.3944 19.9934 16.3944 19.5515V17.9408C16.3944 17.4276 16.5031 17.3253 16.8663 17.3253C17.1343 17.3253 17.5932 17.4584 18.6642 18.4859C19.8881 19.7035 20.0898 20.25 20.7783 20.25H22.5834C23.0991 20.25 23.357 19.9934 23.2082 19.4871C23.0455 18.9824 22.4612 18.2504 21.6857 17.3823C21.265 16.8875 20.6339 16.3547 20.4428 16.0884C20.175 15.7459 20.2514 15.5937 20.4428 15.2894C20.4428 15.2894 22.6419 12.2069 22.8714 11.1603V11.1602Z" fill="#222222"/>
</symbol><symbol id="WhatsApp-mini" viewBox="0 0 30 30">
<rect width="30" height="30" rx="15" fill="white"/>
<path d="M20.4421 10.3297C19.1219 8.98176 17.297 8.25 15.4332 8.25C11.4728 8.25 8.28883 11.4466 8.32766 15.3365C8.32766 16.5689 8.67711 17.7628 9.25954 18.8412L8.25 22.5L12.0163 21.5372C13.0647 22.1149 14.2296 22.3845 15.3944 22.3845C19.3161 22.3845 22.5 19.1878 22.5 15.298C22.5 13.4108 21.7623 11.6392 20.4421 10.3297ZM15.4332 21.1905C14.3849 21.1905 13.3365 20.9209 12.4435 20.3818L12.2105 20.2662L9.95845 20.8439L10.5409 18.6486L10.3856 18.4176C8.67711 15.6831 9.49251 12.0628 12.2881 10.3682C15.0838 8.67365 18.6948 9.48243 20.4033 12.2554C22.1117 15.0284 21.2963 18.6101 18.5007 20.3047C17.6076 20.8824 16.5204 21.1905 15.4332 21.1905ZM18.8501 16.9155L18.423 16.723C18.423 16.723 17.8018 16.4534 17.4135 16.2608C17.3747 16.2608 17.3358 16.2223 17.297 16.2223C17.1805 16.2223 17.1029 16.2608 17.0252 16.2993C17.0252 16.2993 16.9864 16.3378 16.4428 16.9541C16.404 17.0311 16.3263 17.0696 16.2486 17.0696H16.2098C16.171 17.0696 16.0933 17.0311 16.0545 16.9926L15.8604 16.9155C15.4332 16.723 15.045 16.4919 14.7343 16.1838C14.6567 16.1068 14.5402 16.0297 14.4625 15.9527C14.1907 15.6831 13.9189 15.375 13.7248 15.0284L13.686 14.9514C13.6471 14.9128 13.6471 14.8743 13.6083 14.7973C13.6083 14.7203 13.6083 14.6432 13.6471 14.6047C13.6471 14.6047 13.8025 14.4122 13.9189 14.2966C13.9966 14.2196 14.0354 14.1041 14.1131 14.027C14.1907 13.9115 14.2296 13.7574 14.1907 13.6419C14.1519 13.4493 13.686 12.4095 13.5695 12.1784C13.4918 12.0628 13.4142 12.0243 13.2977 11.9858H13.1812C13.1035 11.9858 12.9871 11.9858 12.8706 11.9858C12.7929 11.9858 12.7153 12.0243 12.6376 12.0243L12.5988 12.0628C12.5211 12.1014 12.4435 12.1784 12.3658 12.2169C12.2881 12.2939 12.2493 12.3709 12.1717 12.448C11.8999 12.7946 11.7446 13.2182 11.7446 13.6419C11.7446 13.95 11.8222 14.2581 11.9387 14.5277L11.9775 14.6432C12.327 15.375 12.7929 16.0297 13.4142 16.6074L13.5695 16.7615C13.686 16.877 13.8025 16.9541 13.8801 17.0696C14.6955 17.7628 15.6274 18.2635 16.6757 18.5331C16.7922 18.5716 16.9475 18.5716 17.064 18.6101C17.1805 18.6101 17.3358 18.6101 17.4523 18.6101C17.6465 18.6101 17.8794 18.5331 18.0347 18.4561C18.1512 18.3791 18.2289 18.3791 18.3065 18.302L18.3842 18.225C18.4619 18.148 18.5395 18.1095 18.6172 18.0324C18.6948 17.9554 18.7725 17.8784 18.8113 17.8014C18.889 17.6473 18.9278 17.4547 18.9666 17.2622C18.9666 17.1851 18.9666 17.0696 18.9666 16.9926C18.9666 16.9926 18.9278 16.9541 18.8501 16.9155Z" fill="#222222"/>
</symbol><symbol id="whatsapp" viewBox="0 0 30 31">
<path d="M30 15.1304C30 23.0491 23.407 29.4684 15.2727 29.4684C12.6903 29.4684 10.2643 28.8208 8.15367 27.6843L0 30.2264L2.65833 22.5337C1.31733 20.3733 0.545 17.8393 0.545 15.1304C0.545 7.2117 7.13867 0.79248 15.273 0.79248C23.4077 0.79248 30 7.2117 30 15.1304ZM15.2727 3.0759C8.44467 3.0759 2.89067 8.48358 2.89067 15.1304C2.89067 17.7684 3.767 20.211 5.24933 22.1982L3.70233 26.6747L8.46067 25.1909C10.4157 26.4504 12.7577 27.1849 15.273 27.1849C22.1 27.1849 27.655 21.7779 27.655 15.1307C27.6547 8.4839 22.1003 3.0759 15.2727 3.0759ZM22.7097 18.4326C22.6187 18.2864 22.3783 18.1981 22.0177 18.0225C21.6563 17.8468 19.881 16.9962 19.551 16.8798C19.22 16.7624 18.9787 16.7035 18.7383 17.0551C18.498 17.407 17.806 18.1981 17.595 18.4326C17.3843 18.6677 17.174 18.6972 16.8127 18.5212C16.452 18.3456 15.289 17.9741 13.91 16.7768C12.837 15.8457 12.1123 14.6954 11.9017 14.3435C11.6913 13.992 11.8797 13.802 12.06 13.627C12.2227 13.4694 12.4213 13.2166 12.6017 13.0115C12.7827 12.8061 12.8427 12.6599 12.9623 12.4251C13.0833 12.1906 13.023 11.9856 12.9323 11.8093C12.8423 11.6337 12.1197 9.90425 11.819 9.20078C11.5183 8.49731 11.218 8.61439 11.007 8.61439C10.7967 8.61439 10.5557 8.58496 10.315 8.58496C10.0743 8.58496 9.683 8.67293 9.352 9.02451C9.02133 9.3764 8.089 10.2267 8.089 11.9558C8.089 13.6852 9.382 15.3561 9.563 15.5906C9.74333 15.8247 12.0597 19.4889 15.7297 20.8962C19.4 22.3025 19.4 21.8332 20.062 21.7743C20.7233 21.7158 22.1973 20.9243 22.4993 20.1041C22.7993 19.2826 22.7993 18.5791 22.7097 18.4326Z" fill="#3CA255"/>
</symbol></svg>